<?xml version="1.0" standalone="no"?>
<!DOCTYPE svg PUBLIC "-//W3C//DTD SVG 20010904//EN"
 "http://www.w3.org/TR/2001/REC-SVG-20010904/DTD/svg10.dtd">
<svg version="1.0" xmlns="http://www.w3.org/2000/svg"
 width="1280.000000pt" height="962.000000pt" viewBox="0 0 1280.000000 962.000000"
 preserveAspectRatio="xMidYMid meet">
<g transform="translate(0.000000,962.000000) scale(0.100000,-0.100000)"
fill="#000000" stroke="none">
<path d="M3119 9597 c-30 -20 -34 -29 -37 -70 -3 -41 1 -51 27 -77 62 -62 131
-24 131 72 0 40 -5 53 -26 73 -33 31 -52 31 -95 2z"/>
<path d="M8486 9589 c-20 -12 -58 -91 -76 -158 -10 -38 -8 -48 14 -98 28 -59
32 -88 16 -98 -18 -11 -55 21 -106 89 -26 36 -51 66 -55 66 -22 0 -49 -56 -49
-100 0 -42 8 -60 60 -139 33 -50 60 -98 60 -106 0 -27 -36 -15 -75 25 -21 22
-45 40 -52 40 -19 0 -47 -64 -40 -91 8 -31 104 -157 138 -182 35 -25 166 -28
203 -3 21 13 55 82 44 90 -1 2 -34 7 -73 12 -53 7 -71 13 -73 26 -5 27 33 39
136 45 54 3 107 10 119 14 28 10 55 62 51 97 -3 31 -27 39 -120 41 -69 1 -88
8 -88 30 0 20 39 41 75 41 54 0 75 18 111 94 42 93 43 125 3 188 -48 74 -71
88 -143 88 -33 0 -69 -5 -80 -11z"/>
<path d="M4316 9550 c-36 -43 -44 -95 -19 -128 55 -74 166 -28 149 63 -9 45
-51 95 -81 95 -14 0 -34 -13 -49 -30z"/>
<path d="M7481 9504 c-34 -24 -71 -110 -71 -166 0 -38 8 -57 43 -110 l42 -63
68 -5 c62 -5 86 -16 87 -41 0 -19 -45 -38 -114 -47 -43 -6 -83 -15 -88 -20
-15 -15 31 -94 62 -109 19 -8 50 -9 122 -1 54 6 104 8 113 4 43 -16 -13 -66
-75 -66 -38 0 -46 -19 -25 -60 20 -39 56 -53 120 -45 89 12 129 38 180 119 54
87 64 126 41 161 -23 35 -39 31 -84 -21 -27 -32 -45 -45 -56 -41 -24 9 -20 25
30 128 31 63 47 107 47 134 0 45 -27 105 -47 105 -7 0 -35 -38 -61 -85 -51
-90 -77 -121 -94 -110 -17 10 -13 52 10 120 l21 62 -22 52 c-12 28 -40 67 -61
86 -36 32 -44 35 -102 35 -42 0 -70 -5 -86 -16z"/>
<path d="M3323 9359 c-37 -46 -65 -68 -96 -75 -42 -8 -57 -22 -57 -49 0 -41
47 -60 108 -43 42 11 77 40 98 80 20 39 17 61 -10 87 l-24 23 -19 -23z"/>
<path d="M4134 9315 c-17 -42 34 -123 96 -155 70 -36 110 -23 110 36 0 36 -12
49 -57 58 -17 4 -48 23 -68 42 -39 36 -72 44 -81 19z"/>
<path d="M3447 9236 c-14 -13 -35 -42 -47 -65 -11 -23 -26 -44 -33 -47 -7 -2
-52 -7 -102 -12 l-90 -7 0 -49 c0 -48 1 -50 35 -59 19 -5 70 -7 113 -4 62 4
84 10 102 27 34 32 120 203 112 223 -9 25 -59 21 -90 -7z"/>
<path d="M4000 9232 l-22 -18 32 -79 c17 -44 41 -100 53 -125 l22 -45 77 -3
c42 -1 98 1 124 5 48 8 49 9 49 43 0 38 3 37 -117 55 -53 8 -97 50 -130 122
-31 68 -48 77 -88 45z"/>
<path d="M3587 9138 c-13 -18 -44 -67 -67 -108 -66 -116 -56 -110 -184 -111
-147 -1 -161 -6 -161 -49 l0 -35 75 -7 c41 -5 106 -12 144 -17 72 -10 98 -4
124 28 20 26 162 278 162 288 0 15 -35 43 -53 43 -9 0 -27 -15 -40 -32z"/>
<path d="M3854 9145 c-12 -29 8 -91 68 -217 l60 -126 42 -6 c84 -13 243 -24
270 -19 31 6 50 35 41 63 -8 26 -55 37 -187 46 -66 4 -112 12 -118 19 -6 7
-28 54 -49 104 -22 50 -49 104 -61 121 -23 32 -57 40 -66 15z"/>
<path d="M3741 9006 c-21 -25 -101 -229 -101 -258 0 -26 61 -212 84 -256 12
-22 14 -19 49 55 48 103 67 159 67 198 0 32 -65 253 -79 268 -4 4 -13 1 -20
-7z"/>
<path d="M8072 8935 c-48 -61 -89 -223 -62 -240 8 -5 27 7 52 34 22 22 42 41
46 41 3 0 21 -14 38 -31 67 -64 86 -1 33 106 -17 35 -43 75 -59 90 l-27 26
-21 -26z"/>
<path d="M8903 8761 c-59 -10 -78 -31 -114 -128 -34 -90 -62 -133 -85 -133
-18 0 -18 20 2 91 9 32 14 65 11 74 -9 21 -40 19 -72 -7 -34 -26 -95 -154 -95
-198 0 -42 71 -193 101 -213 13 -10 38 -17 56 -17 40 0 43 17 13 81 -27 60
-26 81 3 77 16 -2 36 -26 70 -83 61 -102 84 -125 133 -131 69 -8 72 3 25 103
-22 50 -41 100 -41 111 0 34 35 27 72 -15 71 -79 65 -76 135 -70 79 6 109 25
142 90 34 69 37 123 9 171 -34 58 -64 75 -140 82 -95 9 -113 2 -142 -54 -28
-56 -50 -77 -71 -68 -22 8 -19 33 18 140 31 88 34 108 18 105 -3 -1 -25 -5
-48 -8z"/>
<path d="M8383 8715 c-77 -17 -83 -20 -83 -50 0 -26 10 -35 55 -50 29 -10 30
-13 30 -70 0 -54 2 -60 22 -63 14 -2 29 7 46 30 30 40 82 182 74 203 -8 19
-58 19 -144 0z"/>
<path d="M3200 8702 c0 -17 100 -169 135 -205 56 -57 107 -79 202 -85 60 -3
83 -2 83 7 0 29 -93 182 -131 217 -30 27 -69 39 -183 59 -103 17 -106 18 -106
7z"/>
<path d="M3046 8675 c-27 -20 -18 -61 45 -194 l52 -112 -66 -137 c-37 -75 -67
-145 -67 -154 0 -25 37 -43 56 -27 42 34 174 270 174 309 0 32 -147 330 -162
330 -7 0 -21 -7 -32 -15z"/>
<path d="M7703 8673 c-35 -13 14 -129 78 -187 64 -58 97 -40 64 34 -21 47 -11
67 38 72 27 2 32 7 32 28 0 37 -53 60 -135 59 -36 0 -71 -3 -77 -6z"/>
<path d="M4080 8646 c-72 -16 -92 -27 -133 -78 -50 -63 -110 -165 -103 -176 3
-6 21 -7 43 -2 21 5 72 11 113 15 41 4 88 15 103 24 42 24 157 182 157 216 0
19 -97 20 -180 1z"/>
<path d="M7265 8647 c-4 -8 7 -41 23 -73 47 -95 57 -133 39 -151 -14 -14 -20
-11 -65 31 -70 65 -143 83 -216 52 -25 -11 -40 -28 -60 -69 -35 -75 -34 -130
2 -188 45 -68 67 -84 121 -83 82 1 118 20 159 82 25 37 44 57 57 57 31 0 30
-42 -4 -135 -17 -46 -31 -90 -31 -97 0 -8 13 -13 34 -13 60 0 85 16 108 67 81
189 104 227 126 200 8 -10 6 -29 -8 -76 -29 -92 -28 -101 18 -101 50 0 67 19
98 110 34 95 32 140 -5 223 -39 86 -69 117 -116 117 -44 0 -44 -10 -8 -103 20
-51 24 -70 15 -79 -18 -18 -47 14 -108 118 -29 50 -60 96 -67 103 -8 6 -35 14
-60 17 -37 5 -48 3 -52 -9z"/>
<path d="M8089 8623 c-19 -50 -48 -71 -105 -79 -60 -7 -62 -12 -40 -71 24 -65
26 -89 11 -139 -8 -27 -15 -54 -15 -60 0 -6 24 -14 54 -17 62 -6 101 -28 122
-68 19 -39 30 -36 54 10 25 51 59 77 110 85 33 5 40 10 36 24 -17 52 -25 130
-19 182 l6 60 -45 0 c-51 0 -89 24 -113 71 -19 37 -42 37 -56 2z"/>
<path d="M4360 8578 c-17 -23 -58 -91 -91 -152 l-60 -109 22 -51 c32 -76 88
-184 116 -227 29 -44 51 -55 71 -36 18 19 5 67 -54 200 -24 55 -44 104 -44
108 0 5 32 67 71 139 39 71 69 137 67 147 -2 12 -14 19 -35 21 -28 3 -36 -3
-63 -40z"/>
<path d="M2897 8572 c-16 -18 -15 -24 15 -109 l33 -91 -23 -54 c-56 -128 -58
-135 -37 -158 21 -23 48 -26 63 -7 6 6 29 49 51 94 54 109 54 142 -1 253 -46
91 -69 107 -101 72z"/>
<path d="M4512 8505 c-11 -13 -39 -61 -62 -106 -49 -95 -49 -103 13 -229 45
-91 68 -108 100 -72 17 18 16 24 -15 115 l-32 96 44 92 45 91 -24 19 c-31 25
-46 24 -69 -6z"/>
<path d="M2749 8489 c-11 -11 -19 -26 -16 -32 31 -85 31 -86 14 -122 -21 -44
-22 -69 -2 -85 12 -10 21 -10 40 -2 26 12 85 95 85 120 0 8 -14 43 -31 78 -33
70 -53 80 -90 43z"/>
<path d="M2475 8445 c-47 -46 -28 -127 37 -161 30 -15 31 -15 64 17 18 17 36
45 39 61 19 84 -81 143 -140 83z"/>
<path d="M4640 8393 c-42 -66 -46 -100 -20 -161 29 -68 42 -78 80 -62 34 14
35 21 18 85 -10 39 -10 52 5 93 l18 47 -26 23 c-14 12 -30 22 -36 22 -5 0 -23
-21 -39 -47z"/>
<path d="M4865 8355 c-38 -37 -34 -88 9 -131 41 -41 74 -43 106 -9 31 33 34
113 6 144 -28 30 -89 29 -121 -4z"/>
<path d="M8393 8373 c-10 -3 -9 -13 2 -40 26 -61 20 -83 -24 -100 -66 -26 -65
-66 3 -84 43 -12 173 -6 188 9 11 11 -63 161 -93 188 -26 24 -57 35 -76 27z"/>
<path d="M7825 8330 c-12 -4 -25 -14 -31 -21 -13 -17 -84 -182 -84 -196 0 -14
132 -23 178 -12 71 16 81 64 22 98 -42 23 -44 29 -40 99 2 44 -5 49 -45 32z"/>
<path d="M3420 8261 c-19 -4 -44 -12 -56 -18 -50 -28 -164 -177 -164 -215 0
-16 9 -18 68 -18 88 1 149 15 190 47 39 29 152 178 152 199 0 11 -17 14 -77
13 -43 -1 -94 -4 -113 -8z"/>
<path d="M3846 8244 c13 -36 99 -176 129 -210 28 -31 38 -35 152 -56 68 -12
125 -19 128 -16 10 10 -114 205 -150 237 -41 36 -84 49 -188 58 -73 6 -77 5
-71 -13z"/>
<path d="M1397 8192 c-10 -11 -33 -28 -52 -38 -42 -22 -43 -32 -9 -84 26 -39
26 -64 -1 -54 -30 12 -28 -28 4 -91 58 -112 22 -173 -42 -72 -36 56 -80 97
-104 97 -8 0 -21 16 -29 35 -17 42 -29 44 -46 8 -11 -23 -20 -28 -52 -28 -54
0 -65 -21 -41 -75 18 -39 18 -43 2 -51 -37 -21 -14 -49 41 -49 34 0 44 -8 59
-42 11 -25 18 -28 62 -28 32 0 53 -5 61 -16 19 -22 -4 -41 -65 -51 -47 -8 -50
-10 -53 -41 -3 -31 -4 -32 -51 -32 -56 0 -85 -21 -54 -39 17 -10 17 -11 1 -41
-10 -18 -18 -40 -18 -49 0 -21 30 -51 51 -51 9 0 25 -11 37 -25 29 -33 40 -32
57 9 13 30 20 35 52 38 36 3 40 7 73 73 29 59 39 70 60 70 38 0 38 -39 -1
-111 -34 -64 -34 -94 1 -94 26 0 25 -2 -6 -49 -29 -45 -29 -84 1 -89 11 -2 34
-17 51 -33 l30 -29 29 30 c18 19 39 30 56 30 43 0 44 17 5 74 -20 29 -36 56
-36 59 0 4 11 7 25 7 46 0 42 39 -11 103 -27 33 -31 79 -9 97 13 11 20 9 41
-11 14 -13 37 -46 51 -72 24 -47 26 -49 59 -42 32 6 36 4 49 -28 22 -52 39
-62 58 -33 9 13 28 27 44 31 37 9 43 20 43 82 0 68 -6 81 -45 98 -19 7 -41 25
-51 40 -16 24 -20 25 -73 20 -61 -6 -103 8 -109 37 -5 26 35 40 109 39 l69 -1
0 30 c0 33 26 50 76 50 27 0 33 24 9 34 -19 7 -19 30 1 46 9 8 14 25 12 44 -2
25 -11 35 -40 48 -20 10 -42 27 -48 38 -14 26 -25 19 -50 -30 -17 -33 -25 -39
-56 -42 -21 -2 -40 -10 -45 -18 -4 -8 -17 -36 -29 -63 -23 -50 -48 -71 -74
-61 -22 9 -20 41 9 112 44 109 46 218 3 224 -14 2 -25 15 -33 38 -14 41 -34
48 -58 22z"/>
<path d="M3693 8138 c-77 -185 -81 -232 -27 -390 21 -60 40 -108 44 -108 4 0
27 48 50 108 59 146 62 198 20 323 -53 155 -51 153 -87 67z"/>
<path d="M8190 8095 c-26 -43 -42 -44 -87 -5 -40 35 -49 37 -63 11 -20 -38
-10 -70 51 -162 69 -104 60 -105 120 15 40 82 50 141 27 164 -18 18 -24 15
-48 -23z"/>
<path d="M10222 8073 c-19 -7 -42 -58 -42 -93 0 -40 23 -90 56 -121 40 -37 32
-49 -36 -49 -51 0 -60 -3 -60 -18 0 -26 37 -62 71 -69 33 -6 36 -19 13 -51
-20 -29 -10 -59 29 -83 84 -51 207 10 207 102 0 32 -3 39 -20 39 -26 0 -25 4
4 43 31 42 39 72 26 97 -14 27 -26 25 -66 -10 -20 -17 -40 -27 -49 -24 -20 8
-19 14 11 73 27 51 27 51 10 96 -10 25 -27 52 -39 60 -20 14 -88 19 -115 8z"/>
<path d="M8428 8041 c-56 -12 -84 -35 -129 -112 -50 -87 -58 -132 -30 -176 12
-18 25 -33 30 -33 5 0 26 27 47 60 24 37 45 59 54 57 26 -5 13 -58 -42 -165
l-52 -102 27 -55 c15 -30 31 -55 36 -55 5 0 28 30 51 68 45 71 78 112 91 112
5 0 13 -9 19 -20 8 -16 7 -34 -4 -74 -9 -30 -16 -65 -16 -78 0 -57 89 -188
128 -188 68 0 140 47 174 114 32 62 29 120 -11 189 -39 68 -53 77 -124 77 -66
0 -90 19 -62 50 20 23 60 36 133 45 49 7 52 8 52 36 0 19 -12 42 -34 66 l-33
37 -96 -13 c-107 -15 -150 -10 -145 17 2 11 23 23 58 34 29 10 58 22 63 27 15
15 -13 71 -40 82 -28 10 -90 10 -145 0z"/>
<path d="M7740 7980 c-18 -4 -40 -16 -47 -26 -25 -34 -15 -50 50 -78 58 -25
61 -28 43 -42 -14 -9 -46 -14 -104 -14 -83 0 -85 -1 -116 -33 -37 -40 -61 -96
-43 -102 7 -2 49 -9 94 -15 93 -14 118 -30 81 -53 -13 -8 -37 -18 -55 -22 -40
-8 -87 -60 -124 -139 l-28 -60 22 -40 c12 -22 40 -59 63 -83 40 -42 42 -43
108 -43 80 0 94 11 132 104 31 75 30 110 -2 180 -26 58 -25 76 5 76 18 0 56
-38 114 -114 15 -20 32 -36 38 -36 16 0 49 63 49 95 0 20 -21 64 -59 125 -33
52 -61 104 -63 115 -6 36 30 28 80 -19 27 -25 52 -46 55 -46 12 0 29 73 23
102 -7 36 -77 138 -107 157 -27 16 -161 24 -209 11z"/>
<path d="M3147 7873 c-11 -11 -8 -50 6 -61 6 -6 50 -13 97 -17 148 -12 173
-32 260 -195 48 -91 71 -107 104 -71 17 19 17 22 -20 103 -88 198 -111 235
-145 242 -42 8 -294 8 -302 -1z"/>
<path d="M3942 7848 c-5 -7 -33 -58 -61 -113 -81 -161 -99 -229 -64 -242 23
-9 67 44 127 156 27 50 55 96 62 102 9 7 49 7 132 -2 65 -7 127 -9 136 -6 13
5 16 17 14 54 -4 59 -8 61 -194 62 -102 1 -144 -2 -152 -11z"/>
<path d="M10824 7842 c-30 -24 -44 -55 -44 -99 0 -21 -5 -45 -10 -53 -7 -11
-12 -6 -25 25 -31 80 -35 87 -48 82 -16 -5 -24 -47 -26 -129 -1 -74 -12 -85
-36 -38 -18 36 -30 38 -46 9 -14 -27 -6 -97 16 -140 25 -48 123 -77 165 -49
13 9 12 12 -4 25 -10 8 -23 16 -29 18 -17 5 2 27 24 27 11 0 32 -6 47 -14 52
-26 67 -27 90 -6 33 31 27 45 -28 79 -57 35 -57 51 -2 51 67 0 112 52 112 130
0 81 -96 131 -156 82z"/>
<path d="M3138 7699 c-21 -12 -23 -48 -5 -73 10 -14 34 -20 90 -26 93 -9 109
-21 148 -108 16 -34 35 -65 44 -68 20 -8 65 22 65 43 0 29 -68 157 -98 187
-47 44 -198 72 -244 45z"/>
<path d="M4095 7651 c-66 -11 -82 -27 -130 -123 -43 -86 -45 -92 -29 -109 34
-37 59 -24 108 55 51 82 74 96 158 96 27 0 58 5 69 10 21 12 25 50 7 68 -13
13 -114 14 -183 3z"/>
<path d="M9957 7613 c-4 -3 -7 -30 -7 -60 0 -53 -13 -71 -25 -34 -3 11 -22 34
-41 50 -39 35 -94 42 -131 16 -47 -33 -53 -126 -13 -178 30 -37 69 -42 130
-16 77 33 77 22 2 -70 l-34 -41 27 -10 c43 -16 61 -12 110 26 51 39 65 38 46
-2 -18 -41 -1 -52 52 -34 58 20 91 82 84 156 -9 95 -60 152 -74 84 -10 -52
-29 -31 -47 53 -10 46 -58 82 -79 60z"/>
<path d="M10470 7579 c-35 -29 -60 -70 -60 -97 0 -21 4 -23 28 -17 20 4 36 0
54 -14 14 -11 28 -17 32 -14 8 8 8 111 0 141 -8 27 -22 28 -54 1z"/>
<path d="M10213 7472 c9 -82 12 -87 68 -110 27 -12 49 -26 49 -32 0 -6 -10
-29 -22 -50 l-23 -39 33 -33 c17 -19 32 -40 32 -47 0 -7 -13 -29 -30 -48 -32
-36 -36 -57 -20 -115 14 -48 25 -54 58 -33 37 24 62 56 62 81 0 22 -24 39 -40
29 -15 -9 -22 15 -9 31 18 22 84 54 112 54 22 0 25 6 31 48 3 26 14 59 23 72
12 17 13 25 5 28 -29 9 -71 55 -77 82 -8 34 -14 36 -57 14 -30 -16 -108 -21
-128 -9 -20 13 -9 35 25 49 57 24 45 53 -31 74 -67 19 -68 19 -61 -46z"/>
<path d="M3127 7513 c-12 -11 -8 -60 6 -70 6 -6 24 -13 39 -17 15 -3 41 -24
59 -45 37 -47 51 -54 84 -41 32 12 31 28 -1 93 -41 82 -48 87 -119 87 -34 0
-65 -3 -68 -7z"/>
<path d="M4126 7460 c-37 -33 -69 -100 -60 -125 10 -25 41 -37 64 -25 11 6 20
15 20 20 0 13 46 36 90 45 42 9 51 21 43 55 -10 43 -32 60 -79 60 -34 0 -51
-7 -78 -30z"/>
<path d="M10574 7377 c-4 -13 21 -125 30 -135 3 -2 16 -2 30 2 29 7 101 90 91
105 -7 12 -98 41 -127 41 -10 0 -21 -6 -24 -13z"/>
<path d="M3050 7271 c-40 -40 -43 -109 -5 -146 34 -35 70 -32 111 9 45 45 45
81 2 123 -50 47 -73 50 -108 14z"/>
<path d="M5534 7290 c-92 -37 -80 -195 16 -226 19 -6 36 -16 37 -21 4 -12 -29
-23 -69 -23 -25 0 -28 -4 -28 -32 0 -47 9 -55 67 -63 57 -7 76 -22 49 -37 -42
-24 4 -68 72 -68 24 0 55 6 70 14 46 23 99 144 72 161 -6 4 -25 1 -41 -5 -16
-7 -32 -11 -34 -8 -3 3 6 30 20 61 17 37 25 69 23 94 -5 56 -28 54 -73 -7 -21
-28 -40 -48 -44 -45 -3 4 -4 38 -2 76 3 68 2 70 -32 104 -35 35 -62 42 -103
25z"/>
<path d="M6164 7281 c-41 -25 -58 -68 -52 -136 3 -31 1 -58 -3 -60 -4 -3 -24
18 -44 45 -45 61 -68 63 -73 7 -2 -25 6 -57 23 -94 27 -60 26 -75 -5 -55 -40
25 -53 16 -48 -33 6 -51 41 -109 76 -124 34 -16 104 -13 130 5 26 18 28 32 5
49 -25 19 -8 32 52 40 51 6 55 9 63 38 11 40 -1 57 -42 57 -17 0 -37 4 -45 9
-17 11 -6 31 17 31 28 0 61 28 82 70 25 49 25 77 1 114 -37 56 -85 69 -137 37z"/>
<path d="M10158 7252 c-46 -43 -46 -65 -3 -82 35 -13 92 -13 100 1 4 5 0 18
-9 28 -18 20 -21 47 -6 56 6 3 10 13 10 21 0 28 -50 15 -92 -24z"/>
<path d="M10765 7266 c-69 -31 -99 -92 -84 -172 11 -56 22 -69 68 -81 34 -9
40 -15 60 -65 8 -22 17 -28 42 -28 l31 0 -4 68 c-3 60 -1 67 16 67 13 0 23
-14 35 -45 42 -116 191 -96 191 26 0 59 -21 97 -64 118 -45 21 -53 21 -98 -11
-27 -18 -42 -23 -49 -16 -11 11 -4 27 42 100 11 18 18 37 14 43 -11 19 -63 10
-93 -15 -36 -30 -42 -31 -42 -6 0 15 -21 34 -33 31 -1 -1 -15 -7 -32 -14z"/>
<path d="M4246 7215 c-13 -14 -26 -37 -29 -51 -7 -40 11 -92 39 -110 21 -14
29 -14 55 -3 68 27 90 115 41 162 -36 34 -75 35 -106 2z"/>
<path d="M10555 7138 c-8 -26 -16 -34 -37 -36 -48 -6 -30 -41 39 -76 18 -9 42
-16 54 -16 20 0 21 3 15 52 -8 58 -30 108 -49 108 -7 0 -17 -15 -22 -32z"/>
<path d="M10075 7112 c-38 -8 -41 -22 -11 -46 20 -15 27 -28 23 -39 -6 -15
-10 -15 -49 3 -52 24 -88 25 -114 5 -18 -15 -17 -18 41 -70 61 -56 61 -58 -7
-55 -46 2 -74 -13 -98 -53 -48 -79 3 -187 87 -187 60 0 109 65 100 132 -3 21
-1 41 5 44 18 11 49 -32 55 -75 7 -49 24 -52 56 -9 l20 27 -21 78 c-11 43 -17
82 -12 87 4 4 20 -10 35 -33 31 -46 40 -50 55 -22 45 85 -69 233 -165 213z"/>
<path d="M10442 6953 c-43 -21 -82 -68 -82 -99 0 -34 24 -40 56 -15 25 20 44
20 44 0 0 -5 -17 -28 -39 -52 -21 -23 -43 -52 -50 -64 -11 -22 -16 -83 -6 -83
3 0 30 16 60 37 31 20 59 33 62 29 4 -4 -3 -26 -16 -49 -43 -74 -22 -165 44
-193 65 -27 120 14 131 98 8 59 -9 96 -50 113 -68 29 -51 69 24 55 25 -4 48
-6 52 -4 5 3 8 20 8 39 0 29 -5 36 -37 52 -35 17 -38 21 -39 63 -1 66 -1 67
-35 79 -44 15 -88 13 -127 -6z"/>
<path d="M5856 6865 c-29 -56 -30 -72 -5 -133 15 -36 10 -44 -47 -78 -27 -16
-33 -136 -8 -158 11 -9 37 -31 58 -50 l40 -33 30 31 c17 17 40 36 51 42 17 10
20 22 20 84 0 62 -3 74 -20 84 -31 17 -106 98 -102 110 2 6 22 10 46 8 35 -3
41 0 41 16 0 23 -51 125 -66 129 -6 2 -23 -21 -38 -52z"/>
<path d="M5367 6763 c-12 -11 -8 -46 10 -95 20 -58 12 -70 -25 -36 -75 71
-154 61 -198 -23 -30 -59 20 -136 93 -145 37 -5 48 0 115 48 28 20 31 2 8 -58
-19 -51 -19 -59 -6 -72 24 -25 61 -1 97 63 17 30 35 55 40 55 5 0 9 -16 9 -35
0 -50 31 -48 66 4 46 71 42 158 -11 215 -35 37 -55 34 -55 -9 0 -19 -4 -35 -9
-35 -5 0 -23 25 -40 55 -35 62 -73 90 -94 68z"/>
<path d="M5661 6759 c-21 -8 -23 -14 -19 -53 6 -48 41 -106 64 -106 10 0 14
13 14 45 0 39 3 47 25 55 14 5 25 16 25 24 0 28 -70 50 -109 35z"/>
<path d="M6375 6758 c-25 -14 -40 -33 -65 -80 -25 -47 -40 -48 -40 -3 0 41
-19 46 -51 14 -28 -28 -49 -81 -49 -124 0 -59 46 -135 82 -135 16 0 19 6 16
32 -5 46 15 45 47 -4 40 -62 66 -88 87 -88 23 0 24 42 3 93 -8 20 -15 41 -15
47 0 18 26 11 50 -15 53 -57 145 -52 174 10 42 87 0 175 -82 175 -31 0 -52 -9
-87 -36 -26 -19 -50 -33 -53 -29 -3 3 2 28 12 55 27 76 15 113 -29 88z"/>
<path d="M6020 6740 c-13 -24 -14 -23 18 -39 18 -9 22 -20 22 -56 0 -24 4 -46
9 -49 15 -10 60 52 67 91 10 51 -4 67 -59 71 -38 3 -48 0 -57 -18z"/>
<path d="M5682 6528 c-20 -27 -42 -78 -42 -101 0 -32 20 -48 67 -54 31 -4 42
-1 58 17 19 22 19 23 2 34 -48 29 -51 34 -49 75 3 42 -14 56 -36 29z"/>
<path d="M6060 6495 c0 -39 -4 -47 -25 -57 -31 -14 -32 -32 -3 -52 28 -20 78
-21 103 -2 17 12 18 18 7 52 -16 54 -49 104 -67 104 -11 0 -15 -11 -15 -45z"/>
<path d="M5835 6371 c-8 -27 3 -68 32 -119 24 -42 25 -43 39 -23 23 32 54 104
54 125 0 15 -5 17 -33 12 -22 -4 -40 -1 -52 9 -26 19 -33 19 -40 -4z"/>
<path d="M2542 6307 c-42 -110 -82 -267 -82 -316 0 -56 38 -147 66 -158 10 -4
32 10 62 40 40 41 46 51 50 99 5 68 -51 388 -69 388 -4 0 -17 -24 -27 -53z"/>
<path d="M5612 6304 c-29 -20 -28 -38 4 -52 37 -17 21 -30 -46 -38 -66 -7 -77
-15 -82 -59 -3 -29 -1 -30 50 -39 57 -10 64 -25 16 -38 -66 -17 -103 -107 -74
-178 27 -66 104 -78 157 -25 35 35 36 36 31 106 -3 38 -2 72 2 74 5 3 24 -18
45 -46 65 -91 99 -37 51 83 -27 67 -26 79 4 60 26 -16 49 -15 56 2 9 22 -36
114 -68 141 -35 30 -110 34 -146 9z"/>
<path d="M6019 6293 c-36 -30 -59 -78 -59 -121 0 -39 8 -44 41 -25 16 9 31 14
34 11 3 -3 -6 -30 -20 -61 -17 -37 -25 -69 -23 -94 5 -56 28 -54 73 7 42 57
59 55 45 -5 -28 -121 91 -216 170 -136 39 39 46 73 25 121 -20 45 -49 75 -87
89 -42 16 -34 28 22 36 46 6 50 9 50 34 0 42 -20 58 -78 64 -72 8 -80 15 -46
43 l29 24 -24 20 c-36 31 -111 28 -152 -7z"/>
<path d="M339 6205 c-48 -32 -52 -47 -23 -86 29 -40 28 -61 -5 -69 -35 -8 -35
-22 -1 -65 35 -45 47 -82 33 -104 -20 -32 -47 -18 -74 37 -35 72 -44 80 -68
58 -19 -17 -20 -17 -46 33 -25 51 -38 61 -50 41 -4 -6 -24 -22 -44 -35 -30
-18 -41 -33 -50 -69 -15 -59 -14 -106 2 -108 6 0 32 -1 57 -2 45 -1 45 -1 45
-36 l0 -35 67 3 c70 3 108 -8 108 -33 0 -21 -36 -36 -107 -45 -72 -9 -78 -12
-70 -35 11 -28 7 -30 -51 -30 l-57 0 -3 -40 c-1 -22 3 -60 10 -84 12 -38 19
-46 46 -53 18 -5 35 -15 39 -23 10 -28 35 -15 50 25 16 40 38 51 60 29 19 -19
41 -2 53 40 14 52 51 97 73 88 32 -12 18 -74 -33 -155 -14 -21 -13 -24 14 -46
l30 -23 -27 -45 c-21 -37 -24 -48 -14 -60 17 -22 89 -68 106 -68 8 0 30 17 50
39 20 21 42 40 49 42 11 4 10 11 -4 36 -17 29 -17 32 0 71 l18 40 -31 42 c-34
47 -41 99 -16 120 24 20 65 -16 81 -72 16 -53 40 -80 50 -54 11 29 39 18 58
-24 10 -22 22 -40 27 -40 18 0 24 5 24 20 0 11 11 15 40 15 l40 0 6 58 c4 31
3 72 0 90 l-7 32 -57 -3 c-61 -4 -64 -2 -45 28 17 26 8 31 -64 39 -69 7 -88
15 -88 36 0 26 43 45 103 45 54 0 58 2 57 23 -4 47 -2 49 48 45 l47 -3 3 45
c6 78 -5 110 -42 125 -22 9 -36 23 -40 41 -7 25 -8 25 -25 10 -10 -9 -23 -34
-30 -56 -9 -29 -17 -40 -31 -40 -11 0 -20 5 -20 10 0 26 -28 5 -57 -43 -59
-98 -100 -112 -90 -32 2 27 17 60 37 88 33 47 33 67 -1 67 -33 0 -32 26 0 74
17 24 31 47 31 50 0 3 -20 17 -43 31 -55 32 -102 32 -148 0z"/>
<path d="M1996 6128 c-3 -13 -6 -50 -6 -84 0 -50 4 -64 23 -81 24 -23 80 -53
97 -53 19 0 42 71 37 113 -6 44 -25 69 -79 103 -47 30 -64 30 -72 2z"/>
<path d="M3014 6051 c-56 -25 -74 -54 -74 -117 0 -71 7 -84 41 -84 41 0 108
36 118 63 8 21 -3 129 -15 149 -8 12 -25 10 -70 -11z"/>
<path d="M2278 6013 c-8 -10 -31 -48 -51 -84 -20 -36 -43 -72 -52 -79 -10 -8
-61 -17 -126 -21 -60 -5 -114 -11 -119 -14 -14 -9 -12 -79 2 -93 7 -7 46 -12
103 -13 49 0 98 -4 109 -8 11 -4 34 -46 61 -112 58 -143 81 -188 123 -231 100
-105 92 13 -17 253 l-58 127 61 122 61 122 -28 24 c-33 29 -49 30 -69 7z"/>
<path d="M2752 5974 c-12 -8 -22 -24 -22 -34 0 -11 18 -70 40 -131 l40 -112
-47 -76 c-25 -42 -61 -97 -79 -122 -30 -42 -63 -142 -64 -191 0 -64 132 66
205 201 28 51 59 104 70 117 l20 24 99 -15 c55 -9 106 -13 113 -11 8 3 13 23
13 50 0 55 -6 59 -120 80 -47 9 -96 24 -109 34 -13 10 -39 53 -57 96 -47 111
-58 121 -102 90z"/>
<path d="M10322 5698 c-72 -228 -72 -229 -24 -308 22 -36 47 -66 55 -68 17 -4
61 39 84 82 12 23 14 47 9 105 -10 124 -52 351 -65 351 -4 0 -31 -73 -59 -162z"/>
<path d="M2388 5829 c-26 -15 -22 -46 16 -124 44 -92 53 -123 65 -227 11 -92
25 -132 44 -125 19 6 47 73 58 137 10 67 40 134 95 213 19 27 34 54 34 59 0
16 -33 67 -47 73 -8 2 -35 -17 -61 -45 -43 -45 -82 -65 -82 -42 0 5 -16 27
-36 50 -36 43 -55 49 -86 31z"/>
<path d="M1520 5784 c0 -13 184 -245 225 -283 48 -44 67 -48 142 -30 l45 12
-5 39 c-3 21 -16 60 -29 86 -20 40 -32 51 -89 79 -63 30 -261 103 -280 103 -5
0 -9 -3 -9 -6z"/>
<path d="M3376 5619 c-176 -40 -208 -55 -235 -112 -30 -62 -40 -102 -31 -118
6 -8 34 -15 77 -17 68 -4 69 -4 123 39 77 60 220 205 220 224 0 19 1 19 -154
-16z"/>
<path d="M9817 5626 c-15 -38 -18 -109 -7 -137 13 -30 82 -79 113 -79 24 0 37
32 37 92 0 65 -18 93 -74 119 -49 22 -62 23 -69 5z"/>
<path d="M2010 5617 c-32 -16 -35 -36 -19 -120 15 -81 11 -87 -63 -87 -67 0
-78 -7 -78 -46 0 -47 27 -61 129 -67 73 -5 95 -11 155 -42 81 -43 121 -56 142
-48 26 10 14 38 -55 125 -87 110 -107 142 -131 213 -19 56 -36 85 -49 85 -3 0
-17 -6 -31 -13z"/>
<path d="M10829 5545 c-65 -34 -72 -46 -73 -125 -1 -91 8 -101 74 -70 80 37
94 58 87 128 -11 102 -15 105 -88 67z"/>
<path d="M2982 5548 c-5 -7 -26 -49 -46 -93 -41 -88 -66 -121 -111 -139 -39
-17 -107 -92 -103 -114 5 -28 90 -28 135 -1 32 20 47 22 132 19 177 -6 180 -5
181 47 0 24 -43 63 -69 63 -9 0 -27 7 -39 16 -25 17 -28 51 -10 121 11 44 10
47 -16 70 -31 26 -40 28 -54 11z"/>
<path d="M7953 5533 c-9 -16 -18 -30 -20 -32 -1 -2 -13 -4 -25 -5 -32 -1 -34
-29 -4 -86 24 -45 22 -71 -3 -55 -24 14 -20 -23 9 -86 37 -80 36 -123 -3 -117
-16 2 -31 21 -55 71 -30 62 -34 67 -65 67 -41 0 -54 9 -62 42 -9 35 -31 42
-53 17 -9 -11 -34 -29 -55 -40 -48 -25 -53 -39 -28 -79 12 -21 18 -43 15 -60
-5 -23 -2 -27 33 -36 29 -7 41 -17 52 -40 13 -31 15 -32 70 -27 67 6 111 -8
111 -36 0 -32 -35 -44 -106 -37 -62 6 -64 6 -70 -19 -7 -30 -39 -55 -69 -55
-34 0 -48 -20 -29 -42 15 -16 15 -19 0 -42 -31 -48 -10 -94 36 -83 27 7 41 0
57 -30 16 -31 25 -29 42 9 9 22 25 35 49 43 26 9 42 25 67 68 34 57 68 80 85
56 13 -20 2 -64 -27 -107 -31 -45 -33 -82 -5 -89 25 -7 25 -17 -1 -59 -25 -40
-22 -77 6 -82 11 -2 32 -16 47 -30 30 -28 39 -26 106 23 18 13 38 25 43 27 7
2 6 13 -1 33 -6 17 -9 49 -5 75 5 36 1 56 -20 102 -31 67 -31 113 0 113 15 0
29 -18 53 -65 36 -72 43 -78 62 -55 24 29 47 18 60 -30 17 -60 33 -72 53 -42
9 14 30 27 46 30 45 9 59 51 31 88 -24 34 -25 45 -4 53 24 9 12 27 -26 40 -24
8 -39 21 -49 43 l-14 32 -63 -6 c-49 -5 -69 -2 -89 11 -58 38 -14 71 85 64
l68 -5 13 31 c11 23 23 33 52 39 40 10 47 23 21 42 -15 11 -15 15 7 44 22 30
22 34 9 58 -9 16 -29 30 -49 35 -20 6 -35 17 -38 29 -8 31 -31 22 -48 -18 -19
-45 -33 -55 -58 -42 -28 15 -36 9 -70 -56 -23 -43 -38 -60 -52 -60 -35 0 -32
58 5 118 31 50 31 51 15 87 -16 35 -16 40 0 70 19 37 14 60 -14 60 -11 0 -36
14 -54 30 -43 37 -52 37 -74 3z"/>
<path d="M10098 5503 c-9 -10 -36 -50 -61 -90 -65 -101 -77 -108 -178 -94 -45
6 -90 11 -100 11 -22 0 -33 -45 -19 -80 15 -35 49 -51 133 -60 37 -4 75 -14
84 -21 9 -8 44 -73 79 -145 70 -145 144 -242 164 -214 6 8 9 47 8 87 -3 58 -8
76 -26 96 -25 26 -112 212 -112 238 0 9 22 59 50 110 27 52 50 104 50 117 0
55 -41 80 -72 45z"/>
<path d="M10553 5460 c-26 -23 -23 -37 32 -155 20 -44 37 -87 38 -95 0 -8 -28
-62 -63 -120 -74 -123 -117 -213 -122 -255 -2 -24 1 -31 18 -33 34 -5 78 42
168 177 95 145 104 151 215 151 36 0 76 3 89 6 27 8 39 46 26 83 -9 25 -13 26
-106 32 -119 7 -124 11 -184 137 -49 100 -68 113 -111 72z"/>
<path d="M1667 5382 c-23 -26 -22 -36 19 -127 20 -44 42 -94 50 -112 13 -30
12 -33 -38 -110 -28 -43 -57 -91 -64 -108 -16 -39 -2 -65 35 -65 24 0 42 15
98 77 86 97 108 106 226 98 213 -15 327 47 178 98 -32 11 -103 20 -184 25
l-132 7 -55 101 c-30 56 -61 109 -69 118 -18 21 -44 20 -64 -2z"/>
<path d="M10194 5305 c-15 -24 -14 -28 30 -117 40 -80 48 -106 56 -186 10 -94
31 -162 49 -162 19 0 42 60 56 144 15 97 25 119 94 205 28 35 51 69 51 77 0
12 -50 54 -66 54 -4 0 -32 -23 -62 -52 l-55 -52 -24 30 c-78 93 -100 103 -129
59z"/>
<path d="M3273 5268 c-11 -13 -42 -60 -69 -105 -27 -46 -53 -84 -59 -86 -5 -2
-41 0 -80 4 -38 4 -110 8 -160 8 -73 1 -96 -3 -122 -19 -39 -23 -41 -33 -10
-55 31 -22 75 -32 215 -49 67 -9 131 -20 142 -26 10 -6 37 -46 60 -89 22 -43
52 -89 65 -101 23 -22 25 -22 50 -6 14 9 25 24 25 34 0 9 -21 64 -45 121 l-45
104 60 102 c33 56 60 108 60 117 0 20 -38 68 -54 68 -7 0 -22 -10 -33 -22z"/>
<path d="M9350 5269 c0 -30 189 -271 225 -287 38 -17 175 -16 175 1 0 29 -41
132 -61 154 -27 28 -85 55 -222 104 -122 44 -117 43 -117 28z"/>
<path d="M2433 5225 c-42 -18 -93 -105 -93 -160 0 -49 46 -134 83 -154 36 -19
130 -10 158 15 57 51 73 137 40 209 -24 52 -56 80 -106 94 -48 13 -43 13 -82
-4z"/>
<path d="M1468 5192 c-32 -20 -58 -42 -58 -49 0 -18 100 -103 123 -103 21 0
107 50 127 75 8 10 6 18 -12 35 -35 34 -100 80 -112 80 -6 0 -37 -17 -68 -38z"/>
<path d="M11214 5115 c-206 -39 -228 -49 -273 -134 -43 -81 -41 -96 13 -110
67 -16 115 -13 152 10 42 26 234 227 234 245 0 8 -1 14 -2 13 -2 0 -58 -11
-124 -24z"/>
<path d="M4765 5080 c-20 -16 -46 -32 -56 -35 -15 -5 -18 -12 -12 -28 4 -12 8
-51 8 -87 1 -46 8 -79 24 -113 27 -57 25 -102 -4 -102 -15 0 -29 18 -53 65
-36 72 -43 78 -62 55 -24 -29 -47 -18 -60 30 -17 60 -33 72 -53 42 -9 -14 -30
-27 -46 -30 -45 -9 -59 -51 -31 -88 24 -34 25 -45 4 -53 -24 -9 -12 -27 26
-40 24 -8 39 -21 49 -43 l14 -32 63 6 c49 5 69 2 89 -11 58 -38 14 -71 -85
-64 l-68 5 -13 -31 c-11 -23 -23 -33 -51 -39 -41 -10 -48 -23 -22 -42 15 -11
15 -15 -7 -44 -22 -30 -22 -34 -9 -58 8 -15 31 -32 50 -38 19 -6 36 -19 38
-28 6 -29 31 -18 47 20 19 45 33 55 58 42 28 -15 36 -9 70 56 23 43 38 60 52
60 35 0 32 -58 -5 -118 -31 -50 -31 -51 -15 -87 16 -35 16 -40 0 -70 -19 -37
-14 -60 14 -60 11 0 36 -13 54 -30 43 -37 52 -37 74 -2 9 15 18 29 20 31 1 2
13 4 25 5 32 1 34 29 4 86 -24 45 -22 71 3 55 24 -14 20 23 -9 86 -37 80 -36
123 3 117 16 -2 31 -21 55 -70 30 -63 34 -68 65 -68 41 0 54 -9 62 -42 9 -35
31 -42 53 -17 9 11 34 29 55 40 48 25 53 39 28 79 -12 21 -18 43 -15 60 5 23
2 27 -33 36 -29 7 -41 17 -52 40 -13 31 -15 32 -70 27 -67 -6 -111 8 -111 36
0 32 35 44 106 37 62 -6 64 -6 70 19 7 30 39 55 69 55 34 0 48 20 29 42 -15
16 -15 19 0 42 31 48 10 94 -36 83 -27 -7 -41 0 -57 31 -16 30 -25 28 -42 -10
-9 -22 -25 -35 -49 -43 -26 -9 -42 -25 -67 -68 -34 -57 -68 -80 -85 -56 -13
20 -2 64 27 107 31 45 33 82 5 89 -25 7 -25 17 1 59 25 41 22 78 -7 82 -12 2
-32 14 -45 28 -29 31 -38 30 -84 -6z"/>
<path d="M9800 5090 c-8 -15 -6 -36 5 -81 19 -74 13 -84 -56 -93 -56 -8 -89
-33 -89 -70 0 -45 23 -56 118 -56 79 0 94 -3 161 -35 68 -33 143 -46 155 -27
9 15 -23 70 -60 103 -81 73 -93 91 -119 168 -14 43 -34 86 -44 95 -24 22 -58
20 -71 -4z"/>
<path d="M3378 5051 c-25 -16 -49 -34 -53 -41 -9 -15 86 -110 111 -110 23 0
113 58 128 83 9 15 4 25 -31 57 -53 50 -90 52 -155 11z"/>
<path d="M10767 4983 c-52 -100 -89 -147 -153 -193 -55 -41 -92 -99 -78 -122
10 -16 82 -3 145 26 61 29 112 32 201 14 69 -14 92 -5 96 38 3 41 -8 54 -69
74 -73 25 -78 35 -50 114 24 68 20 97 -15 110 -32 12 -42 5 -77 -61z"/>
<path d="M2170 4946 c-19 -7 -52 -21 -72 -30 -44 -19 -97 -20 -184 -4 -73 13
-94 4 -94 -43 0 -36 19 -54 81 -74 28 -9 53 -24 56 -32 3 -8 -5 -46 -18 -85
l-24 -70 24 -19 c41 -33 58 -25 95 49 49 96 87 145 152 192 54 40 92 99 79
120 -9 14 -53 12 -95 -4z"/>
<path d="M2706 4892 c-9 -15 23 -70 59 -103 79 -72 95 -94 120 -170 27 -81 48
-109 83 -109 36 0 45 32 27 101 -19 74 -13 84 56 93 56 8 89 33 89 70 0 45
-23 56 -118 55 -82 -1 -93 1 -160 35 -68 34 -143 48 -156 28z"/>
<path d="M9492 4874 c-12 -8 -22 -23 -22 -32 0 -9 21 -64 45 -121 l45 -104
-60 -102 c-33 -56 -60 -108 -60 -117 0 -20 38 -68 54 -68 19 0 48 36 101 125
26 44 52 82 56 85 5 3 41 3 81 -1 145 -15 250 -11 286 11 38 23 40 33 10 55
-32 22 -76 32 -215 49 -67 8 -131 20 -143 26 -11 6 -36 41 -54 79 -34 66 -81
131 -95 131 -3 0 -17 -7 -29 -16z"/>
<path d="M2279 4780 c-21 -22 -72 -92 -113 -154 -83 -128 -95 -136 -205 -136
-36 0 -76 -3 -89 -6 -27 -8 -39 -46 -26 -83 9 -25 13 -26 106 -32 119 -7 124
-11 184 -136 49 -101 68 -114 111 -73 26 23 23 37 -32 155 -20 44 -37 87 -38
95 0 8 27 60 60 115 72 117 120 218 125 260 2 25 -1 31 -20 33 -17 3 -35 -8
-63 -38z"/>
<path d="M2594 4795 c-13 -51 1 -143 24 -168 25 -26 112 -212 112 -238 0 -9
-22 -59 -50 -110 -51 -97 -59 -132 -37 -163 24 -32 50 -14 112 79 74 111 89
120 191 106 107 -15 113 -15 120 14 16 65 -46 115 -144 115 -28 0 -57 7 -71
16 -13 9 -51 74 -86 148 -57 118 -131 226 -156 226 -5 0 -11 -11 -15 -25z"/>
<path d="M2444 4749 c-9 -18 -20 -64 -26 -103 -12 -91 -32 -136 -96 -215 -29
-35 -52 -70 -52 -77 0 -13 51 -54 67 -54 5 0 29 20 53 45 24 25 52 45 61 45 9
0 29 -17 45 -37 52 -69 82 -80 110 -38 15 24 14 28 -30 117 -40 80 -48 106
-56 186 -10 94 -31 162 -49 162 -6 0 -18 -14 -27 -31z"/>
<path d="M1684 4732 c-48 -35 -224 -221 -224 -237 0 -14 2 -14 180 21 68 14
138 34 156 44 33 21 94 123 94 158 0 15 -10 22 -44 31 -75 19 -119 14 -162
-17z"/>
<path d="M11034 4684 c-37 -41 -77 -80 -88 -87 -13 -7 -77 -12 -171 -12 -122
-1 -156 -4 -182 -18 -91 -48 8 -94 226 -105 l126 -7 55 -101 c64 -117 76 -134
100 -134 20 0 50 30 50 51 0 8 -16 50 -36 94 -20 44 -42 94 -50 112 -13 30
-12 33 38 110 28 43 57 91 64 108 16 39 2 65 -35 65 -24 0 -42 -15 -97 -76z"/>
<path d="M9296 4688 c-76 -51 -79 -62 -29 -108 53 -50 90 -52 155 -11 25 16
49 34 53 41 9 15 -86 110 -111 110 -11 0 -41 -15 -68 -32z"/>
<path d="M10242 4710 c-34 -14 -82 -97 -82 -142 0 -119 109 -214 203 -175 45
19 97 104 97 160 0 44 -31 109 -67 143 -21 19 -37 24 -77 23 -28 0 -61 -4 -74
-9z"/>
<path d="M3050 4637 c0 -7 9 -41 21 -75 28 -84 61 -110 210 -164 164 -60 169
-62 169 -47 0 13 -69 113 -138 199 -69 87 -93 100 -184 100 -58 0 -78 -3 -78
-13z"/>
<path d="M11193 4545 c-28 -19 -54 -39 -57 -44 -8 -12 57 -74 101 -98 31 -16
31 -16 92 23 33 21 61 44 61 51 0 19 -101 103 -124 103 -12 0 -45 -16 -73 -35z"/>
<path d="M9940 4418 c-31 -21 -44 -22 -130 -19 -173 8 -179 6 -180 -46 0 -24
43 -63 69 -63 9 0 27 -7 39 -16 25 -17 28 -51 10 -121 -11 -45 -10 -47 17 -70
15 -13 32 -22 39 -21 6 2 31 45 56 95 50 103 71 129 115 147 39 17 107 92 103
114 -5 28 -94 28 -138 0z"/>
<path d="M10523 4413 c-25 -9 -13 -39 43 -108 89 -111 116 -154 143 -228 31
-83 48 -98 85 -74 30 20 32 41 14 129 -15 70 -8 78 64 78 66 0 78 7 78 45 0
48 -21 59 -123 66 -78 6 -99 12 -166 46 -79 42 -117 54 -138 46z"/>
<path d="M12340 4371 c-19 -21 -41 -40 -48 -42 -11 -4 -10 -11 4 -36 17 -29
17 -32 0 -71 l-18 -40 31 -42 c34 -47 41 -99 16 -120 -24 -20 -65 16 -81 72
-16 53 -40 80 -50 54 -11 -29 -39 -18 -58 24 -10 22 -22 40 -27 40 -18 0 -24
-5 -24 -20 0 -11 -11 -15 -40 -15 l-40 0 -6 -58 c-4 -31 -3 -72 0 -90 l7 -32
57 3 c61 4 64 2 45 -28 -17 -26 -8 -31 64 -39 69 -7 88 -15 88 -36 0 -26 -43
-45 -103 -45 -54 0 -58 -2 -57 -22 4 -48 2 -50 -47 -46 l-48 3 -3 -45 c-6 -78
5 -110 42 -125 22 -9 36 -23 40 -41 7 -25 8 -25 25 -10 10 9 23 34 30 56 9 29
17 40 31 40 11 0 20 -4 20 -10 0 -26 28 -5 57 43 59 98 100 112 90 32 -2 -27
-17 -60 -37 -88 -33 -47 -33 -67 1 -67 33 0 32 -26 0 -74 -17 -24 -31 -47 -31
-50 0 -14 90 -56 120 -56 36 0 95 32 110 59 7 14 3 27 -16 52 -29 40 -28 61 5
69 35 8 35 22 1 65 -35 45 -47 82 -33 104 20 32 47 18 74 -37 35 -72 44 -80
68 -58 19 17 20 17 46 -33 25 -51 38 -61 50 -41 4 6 24 22 44 35 30 18 41 33
50 69 15 59 14 106 -1 108 -7 0 -33 1 -58 2 -45 1 -45 1 -45 36 l0 35 -67 -3
c-70 -3 -108 8 -108 33 0 21 36 36 107 45 72 9 78 12 70 35 -11 28 -7 30 51
30 l57 0 3 40 c1 22 -3 60 -10 84 -12 38 -19 46 -46 53 -18 5 -35 15 -39 23
-10 28 -35 15 -50 -25 -16 -40 -38 -51 -60 -29 -19 19 -41 2 -53 -40 -14 -52
-51 -97 -73 -88 -32 12 -18 74 33 155 14 21 13 24 -14 46 l-30 23 27 45 c21
37 24 48 14 60 -18 23 -90 68 -107 68 -8 0 -31 -18 -50 -39z"/>
<path d="M10091 4273 c-38 -38 -79 -97 -120 -170 -35 -62 -68 -117 -75 -122
-8 -7 -45 -5 -111 5 -54 8 -105 12 -112 10 -8 -3 -13 -23 -13 -50 0 -55 6 -59
120 -80 47 -9 96 -24 109 -34 13 -10 40 -55 60 -101 20 -46 43 -89 52 -94 22
-14 69 16 69 43 0 10 -18 69 -39 129 l-39 110 53 90 c29 49 64 105 79 123 23
31 55 135 56 181 0 32 -31 18 -89 -40z"/>
<path d="M2408 4273 c-55 -60 -61 -78 -54 -161 10 -125 52 -352 65 -352 9 0
108 310 116 365 6 35 1 49 -33 105 -22 36 -46 66 -54 68 -7 1 -25 -10 -40 -25z"/>
<path d="M10400 4279 c0 -46 34 -150 89 -270 l58 -127 -61 -122 -61 -122 28
-24 c48 -41 59 -34 121 78 45 83 70 98 168 99 119 2 132 7 136 52 5 60 -7 67
-117 67 -63 0 -103 4 -113 13 -8 6 -30 50 -48 97 -49 124 -86 196 -126 240
-40 44 -74 53 -74 19z"/>
<path d="M1965 4268 c-64 -33 -85 -57 -85 -97 0 -39 15 -109 24 -118 8 -9 102
36 122 58 33 36 26 180 -8 179 -7 -1 -31 -10 -53 -22z"/>
<path d="M10268 4248 c-18 -28 -34 -79 -42 -136 -7 -49 -41 -121 -92 -195 -39
-57 -40 -59 -17 -98 27 -45 40 -43 92 11 26 28 54 50 62 50 8 0 22 -12 31 -27
9 -16 28 -39 42 -52 22 -21 31 -23 54 -15 40 14 39 43 -9 146 -33 72 -44 111
-52 178 -15 139 -38 185 -69 138z"/>
<path d="M9490 4209 c-77 -60 -220 -205 -220 -224 0 -8 2 -15 5 -15 29 0 299
67 326 81 37 18 69 68 88 137 13 45 0 56 -76 60 -68 4 -69 4 -123 -39z"/>
<path d="M2850 4191 c-18 -35 -12 -125 10 -154 22 -27 102 -63 119 -53 16 10
25 113 12 144 -13 30 -84 82 -113 82 -9 0 -22 -9 -28 -19z"/>
<path d="M10906 4148 c-38 -10 -38 -11 -33 -50 3 -21 16 -60 29 -86 19 -40 33
-52 87 -78 75 -37 279 -109 287 -101 8 8 -140 201 -206 270 -61 62 -79 67
-164 45z"/>
<path d="M10211 3746 c-39 -40 -45 -52 -49 -99 -5 -67 51 -387 69 -387 21 0
109 299 109 371 0 59 -42 151 -70 157 -8 1 -35 -18 -59 -42z"/>
<path d="M6519 3749 c-39 -42 -45 -72 -24 -119 20 -45 49 -75 88 -89 41 -16
33 -28 -23 -36 -46 -6 -50 -9 -50 -34 0 -42 20 -58 78 -64 72 -8 80 -15 46
-43 l-29 -24 24 -20 c36 -31 111 -28 152 7 36 30 59 78 59 121 0 39 -8 44 -41
25 -16 -9 -31 -14 -34 -11 -3 3 6 30 20 61 17 37 25 69 23 94 -5 56 -28 54
-73 -7 -42 -57 -59 -55 -45 5 28 122 -93 217 -171 134z"/>
<path d="M7163 3745 c-35 -35 -36 -36 -31 -106 3 -38 2 -72 -2 -74 -5 -3 -24
18 -45 46 -65 91 -99 37 -51 -83 27 -67 26 -79 -4 -60 -53 33 -70 4 -39 -67
30 -71 68 -101 128 -101 76 0 119 44 65 68 -37 17 -21 30 46 38 66 7 77 15 82
59 3 29 1 30 -50 39 -57 10 -64 25 -16 38 66 17 103 107 74 178 -27 66 -104
78 -157 25z"/>
<path d="M9747 3749 c-48 -25 -57 -50 -45 -123 10 -68 14 -76 34 -76 25 0 92
38 108 62 16 22 22 111 10 142 -9 22 -60 20 -107 -5z"/>
<path d="M10663 3673 c-18 -45 -12 -106 14 -135 23 -27 89 -68 107 -68 18 0
26 31 26 106 0 66 -12 85 -77 118 -45 23 -52 21 -70 -21z"/>
<path d="M6871 3348 c-17 -33 -31 -70 -31 -81 0 -16 5 -18 33 -13 22 4 40 1
56 -10 30 -22 44 -4 35 46 -5 31 -49 120 -59 120 -2 0 -17 -28 -34 -62z"/>
<path d="M6380 3221 c0 -16 7 -45 15 -64 8 -20 15 -41 15 -47 0 -18 -26 -11
-50 15 -53 57 -145 52 -174 -10 -26 -55 -21 -112 13 -146 47 -46 111 -39 173
19 37 34 45 22 25 -36 -29 -80 -19 -115 25 -91 28 15 42 32 68 82 25 46 40 47
40 2 0 -41 19 -46 51 -14 28 28 49 81 49 124 0 59 -46 135 -82 135 -16 0 -19
-6 -16 -32 5 -46 -15 -45 -47 4 -40 62 -66 88 -87 88 -13 0 -18 -8 -18 -29z"/>
<path d="M6665 3236 c-17 -12 -18 -18 -7 -52 16 -54 49 -104 67 -104 11 0 15
11 15 45 0 39 4 47 25 57 31 14 32 32 3 52 -28 20 -78 21 -103 2z"/>
<path d="M7035 3230 c-19 -22 -19 -23 -2 -34 48 -29 51 -34 49 -76 -3 -35 0
-41 15 -38 22 4 63 74 63 109 0 34 -19 49 -67 56 -31 4 -42 1 -58 -17z"/>
<path d="M7387 3239 c-10 -6 -31 -35 -48 -65 -17 -30 -35 -54 -40 -54 -5 0 -9
16 -9 35 0 50 -31 48 -66 -4 -46 -71 -42 -158 11 -215 35 -37 55 -34 55 9 0
45 15 44 39 -2 63 -124 140 -118 95 7 -21 60 -13 72 24 38 75 -71 154 -61 198
23 30 59 -20 136 -93 145 -37 5 -48 0 -115 -48 -28 -20 -31 -2 -9 57 17 44 19
60 10 71 -13 16 -27 17 -52 3z"/>
<path d="M6875 3176 c-17 -17 -39 -36 -50 -42 -17 -10 -20 -22 -20 -84 0 -62
3 -74 20 -84 31 -17 106 -98 102 -110 -2 -6 -22 -10 -46 -8 -35 3 -41 0 -41
-16 0 -23 51 -125 66 -129 16 -5 67 103 61 129 -3 13 -11 38 -18 56 -15 36
-10 44 47 78 27 16 33 136 8 158 -11 9 -37 31 -59 50 l-40 33 -30 -31z"/>
<path d="M2215 3156 c-38 -17 -55 -45 -62 -106 -7 -58 12 -96 52 -106 14 -3
30 -14 35 -24 15 -28 -8 -40 -60 -30 -25 4 -48 6 -52 4 -5 -3 -8 -20 -8 -39 0
-29 5 -36 38 -52 36 -17 37 -20 37 -71 0 -58 8 -67 63 -78 53 -10 99 4 142 45
62 59 48 133 -16 82 -25 -20 -44 -20 -44 0 0 5 17 28 39 52 21 23 43 52 50 64
11 22 16 83 6 83 -3 0 -30 -16 -60 -37 -31 -20 -59 -33 -62 -29 -4 4 3 26 16
49 43 74 22 165 -44 193 -40 16 -33 16 -70 0z"/>
<path d="M6696 3000 c-29 -35 -44 -96 -29 -119 15 -24 94 -27 110 -5 18 25 16
33 -12 44 -22 8 -25 16 -25 54 0 57 -12 64 -44 26z"/>
<path d="M7080 2975 c0 -40 -3 -47 -26 -55 -36 -14 -27 -42 19 -57 26 -9 45
-10 63 -3 24 10 26 14 22 54 -6 48 -41 106 -64 106 -10 0 -14 -13 -14 -45z"/>
<path d="M2802 2934 c-35 -24 -55 -72 -49 -116 5 -40 -2 -52 -26 -42 -18 6
-37 55 -37 91 0 32 -26 27 -53 -9 l-20 -27 21 -78 c11 -43 17 -82 12 -87 -4
-4 -20 10 -35 33 -31 46 -40 50 -55 22 -41 -78 51 -213 146 -213 54 0 65 17
30 46 -20 15 -27 28 -23 39 6 15 10 15 49 -3 52 -24 88 -25 114 -5 18 15 17
18 -41 70 -61 56 -61 58 7 55 46 -2 74 13 98 53 63 102 -46 236 -138 171z"/>
<path d="M6632 2784 c-26 -18 -28 -32 -5 -49 25 -19 8 -32 -52 -40 -51 -6 -55
-9 -63 -38 -11 -40 1 -57 42 -57 35 0 64 -15 53 -27 -5 -4 -22 -12 -40 -18
-32 -10 -73 -60 -83 -102 -9 -33 2 -65 30 -96 33 -36 70 -43 112 -24 47 23 66
66 62 137 -1 32 0 61 3 65 4 3 23 -17 44 -45 45 -61 68 -63 73 -7 2 25 -6 57
-23 94 -27 60 -26 75 5 55 40 -25 53 -16 48 33 -6 51 -41 109 -76 124 -34 16
-104 13 -130 -5z"/>
<path d="M7050 2786 c-44 -24 -96 -145 -70 -161 6 -4 25 -1 41 5 16 7 32 11
34 8 3 -3 -6 -30 -20 -61 -17 -37 -25 -69 -23 -94 5 -56 28 -54 73 7 21 28 40
48 44 45 3 -4 4 -38 2 -76 -3 -68 -2 -70 33 -105 33 -33 41 -36 74 -31 54 9
92 55 92 111 0 56 -34 107 -80 122 -19 6 -36 16 -37 21 -4 12 29 23 70 23 24
0 27 4 27 33 0 46 -9 54 -67 62 -57 7 -76 22 -49 37 43 24 -5 68 -74 68 -25
-1 -56 -7 -70 -14z"/>
<path d="M1922 2633 c3 -61 1 -68 -16 -68 -13 0 -23 14 -35 45 -42 116 -191
96 -191 -26 0 -59 21 -97 64 -118 45 -21 53 -21 98 11 51 34 71 20 40 -29 -42
-66 -53 -89 -47 -98 12 -19 63 -10 93 15 36 30 42 31 42 6 0 -65 128 -1 149
75 10 37 -3 122 -22 141 -6 6 -27 15 -46 20 -34 9 -40 15 -60 66 -8 21 -17 27
-42 27 l-31 0 4 -67z"/>
<path d="M2437 2652 c-63 -42 -77 -98 -27 -108 17 -4 30 -10 30 -14 0 -21 -86
-70 -123 -70 -22 0 -25 -6 -31 -48 -3 -26 -14 -59 -23 -72 -12 -17 -13 -25 -5
-28 29 -9 71 -55 77 -82 8 -34 14 -36 57 -14 30 16 108 21 128 9 20 -13 9 -35
-25 -49 -57 -24 -45 -53 31 -74 67 -19 68 -19 61 46 -9 82 -12 87 -68 110 -27
12 -49 26 -49 32 0 6 10 29 22 50 l23 39 -33 33 c-17 19 -32 40 -32 47 0 7 14
29 31 49 28 31 31 40 25 79 -6 45 -21 83 -34 83 -4 0 -19 -8 -35 -18z"/>
<path d="M2174 2558 c8 -58 30 -108 49 -108 7 0 17 15 22 33 8 25 16 33 38 35
47 6 29 41 -40 76 -18 9 -42 16 -54 16 -20 0 -21 -3 -15 -52z"/>
<path d="M8478 2564 c-59 -32 -75 -110 -31 -156 47 -49 113 -30 132 37 12 45
-2 99 -32 120 -26 18 -34 18 -69 -1z"/>
<path d="M9644 2484 c-44 -46 -45 -80 -1 -121 49 -47 72 -50 107 -14 59 58 28
171 -46 171 -18 0 -38 -12 -60 -36z"/>
<path d="M2545 2449 c-4 -5 0 -18 9 -28 18 -20 21 -47 6 -56 -20 -12 -10 -35
15 -35 34 0 111 70 102 94 -12 31 -117 51 -132 25z"/>
<path d="M11355 2430 c-18 -19 -39 -30 -56 -30 -43 0 -44 -17 -5 -74 20 -29
36 -56 36 -59 0 -4 -11 -7 -25 -7 -46 0 -42 -39 11 -103 27 -33 31 -79 9 -97
-13 -11 -20 -9 -41 11 -14 13 -37 46 -51 72 -24 47 -26 49 -59 42 -32 -6 -36
-4 -49 28 -22 52 -39 62 -58 33 -9 -13 -28 -27 -44 -31 -37 -9 -43 -20 -43
-82 0 -68 6 -81 45 -98 19 -7 41 -25 51 -40 16 -24 20 -25 73 -20 61 6 103 -8
109 -37 5 -26 -35 -40 -109 -39 l-69 1 0 -30 c0 -33 -26 -50 -76 -50 -27 0
-33 -24 -9 -34 19 -7 19 -30 -1 -46 -9 -8 -14 -25 -12 -44 2 -25 11 -35 40
-48 20 -10 42 -27 48 -38 14 -26 25 -19 50 31 18 34 25 39 54 39 39 0 46 8 70
73 19 51 53 81 80 71 22 -9 20 -40 -9 -112 -44 -109 -46 -218 -3 -224 14 -2
25 -14 33 -37 6 -19 16 -36 22 -38 6 -2 32 12 58 31 26 20 51 36 56 36 17 0 9
30 -17 70 -26 39 -26 64 1 54 30 -12 28 28 -4 91 -58 112 -22 173 42 72 36
-56 80 -97 104 -97 8 0 21 -16 29 -35 17 -42 29 -44 46 -7 11 22 20 27 52 27
54 0 65 21 41 75 -18 39 -18 43 -2 51 37 21 14 49 -41 49 -34 0 -44 8 -59 43
-11 24 -18 27 -62 27 -32 0 -53 5 -61 16 -19 22 4 41 65 51 47 8 50 10 53 41
3 31 4 32 51 32 56 0 85 21 54 39 -17 10 -17 11 0 41 9 18 17 40 17 49 0 21
-30 51 -51 51 -9 0 -25 11 -37 25 -29 33 -40 32 -57 -9 -13 -30 -20 -35 -52
-38 -36 -3 -40 -7 -73 -73 -29 -59 -39 -70 -60 -70 -38 0 -38 39 1 111 34 64
34 94 -1 94 -26 0 -25 2 6 49 29 45 29 84 -1 89 -11 2 -34 17 -51 33 l-30 29
-29 -30z"/>
<path d="M5028 2367 c-28 -31 -68 -133 -68 -172 0 -18 12 -58 26 -89 26 -58
25 -76 -5 -76 -18 0 -56 38 -114 114 -15 20 -32 36 -38 36 -16 0 -49 -63 -49
-95 0 -20 21 -64 59 -125 33 -52 61 -104 63 -115 6 -36 -30 -28 -80 19 -27 25
-52 46 -55 46 -12 0 -29 -73 -23 -101 6 -33 57 -112 94 -146 45 -41 222 -43
263 -2 34 34 24 53 -43 83 -59 25 -62 28 -44 42 14 9 46 14 104 14 83 0 85 1
116 33 37 40 61 96 43 102 -7 2 -49 9 -94 15 -93 14 -118 30 -81 53 13 8 37
18 55 22 40 8 87 60 124 139 l28 60 -22 40 c-12 22 -40 59 -63 83 -40 42 -42
43 -108 43 -58 0 -70 -3 -88 -23z"/>
<path d="M2113 2334 c-24 -26 -43 -51 -43 -56 0 -12 59 -36 109 -44 48 -8 59
6 43 58 -6 18 -13 45 -16 61 -10 42 -42 35 -93 -19z"/>
<path d="M2712 2355 c-46 -20 -77 -90 -69 -156 11 -92 60 -145 74 -79 8 42 26
32 39 -22 16 -60 30 -85 54 -93 32 -10 40 3 40 61 0 54 13 72 25 35 3 -11 22
-34 41 -50 39 -35 94 -42 131 -16 47 33 53 126 13 178 -29 37 -70 42 -126 18
-80 -36 -83 -27 -18 53 l45 56 -26 10 c-43 16 -61 12 -110 -26 -51 -39 -65
-38 -46 2 20 45 -5 56 -67 29z"/>
<path d="M4090 2324 c-46 -20 -77 -50 -103 -99 -31 -60 -27 -119 12 -188 39
-68 53 -77 124 -77 66 0 90 -19 62 -50 -20 -23 -60 -36 -132 -45 -50 -7 -53
-8 -53 -36 0 -19 12 -42 34 -66 l33 -37 96 13 c107 15 150 10 145 -17 -2 -11
-23 -23 -58 -34 -29 -10 -58 -22 -63 -27 -16 -16 12 -68 44 -81 38 -16 153 -5
194 18 38 22 115 150 122 200 4 37 -25 102 -46 102 -5 0 -26 -27 -47 -60 -24
-37 -45 -59 -54 -57 -26 5 -13 58 42 165 l52 102 -27 55 c-15 30 -31 55 -36
55 -5 0 -28 -30 -51 -67 -45 -72 -78 -113 -91 -113 -5 0 -13 9 -19 20 -8 15
-7 33 5 72 8 28 15 63 15 77 0 38 -42 122 -79 159 -36 36 -66 40 -121 16z"/>
<path d="M8651 2291 c-27 -26 -84 -51 -117 -51 -28 0 -25 -59 4 -92 10 -12 30
-18 58 -18 62 0 114 48 138 127 5 15 1 28 -13 42 -27 27 -35 27 -70 -8z"/>
<path d="M9483 2280 c-30 -12 -29 -29 6 -98 40 -78 48 -84 123 -80 61 3 63 4
66 31 4 34 -13 57 -40 57 -11 0 -42 23 -69 50 -52 53 -52 54 -86 40z"/>
<path d="M8756 2146 c-51 -82 -74 -96 -158 -96 -61 0 -88 -14 -88 -44 0 -42
22 -50 125 -43 130 9 144 18 200 128 43 87 45 93 29 110 -34 37 -59 24 -108
-55z"/>
<path d="M9343 2185 c-13 -9 -23 -23 -23 -32 0 -28 70 -159 100 -188 46 -44
217 -74 248 -43 17 17 15 63 -3 78 -8 7 -49 16 -91 20 -89 9 -104 20 -149 113
-32 67 -47 76 -82 52z"/>
<path d="M2276 2183 c-8 -8 -8 -111 0 -140 8 -28 19 -29 52 -2 36 28 62 69 62
97 0 21 -4 23 -28 17 -20 -4 -36 0 -54 14 -14 11 -28 17 -32 14z"/>
<path d="M2030 2170 c-13 -9 -12 -12 4 -25 10 -8 23 -16 29 -18 17 -5 -2 -27
-24 -27 -11 0 -32 6 -47 14 -53 27 -70 28 -91 7 -31 -31 -26 -46 29 -80 57
-35 57 -51 2 -51 -67 0 -112 -52 -112 -130 0 -107 140 -139 189 -43 6 12 11
39 11 60 0 21 5 45 10 53 7 11 12 6 25 -25 31 -80 35 -87 48 -82 16 5 24 47
26 130 1 73 12 84 36 37 18 -36 30 -38 46 -9 14 27 6 97 -16 140 -25 48 -123
77 -165 49z"/>
<path d="M8934 2096 c-16 -19 -51 -76 -78 -126 -27 -50 -55 -95 -62 -101 -9
-7 -49 -7 -132 2 -65 7 -127 9 -136 6 -13 -5 -16 -17 -14 -54 3 -44 5 -47 35
-55 18 -5 95 -7 170 -6 l138 3 38 70 c21 39 52 102 69 140 54 122 36 199 -28
121z"/>
<path d="M9186 2091 c-17 -19 -17 -22 20 -103 20 -46 54 -118 75 -160 38 -75
40 -77 81 -83 24 -3 99 -5 168 -3 122 3 125 4 128 26 6 39 -14 50 -106 57
-150 12 -175 31 -262 195 -48 91 -71 107 -104 71z"/>
<path d="M2412 2033 c-47 -23 -72 -59 -72 -104 0 -32 3 -39 20 -39 26 0 25 -4
-4 -43 -31 -42 -39 -72 -26 -97 14 -27 26 -25 66 10 20 17 40 27 49 24 20 -8
19 -14 -11 -73 -27 -51 -27 -51 -10 -96 21 -54 48 -75 97 -75 51 0 67 8 84 41
29 55 12 130 -41 180 -40 37 -32 49 36 49 51 0 60 3 60 18 0 26 -37 62 -71 69
-32 6 -38 27 -14 53 35 38 -26 100 -97 100 -18 0 -48 -8 -66 -17z"/>
<path d="M9040 1873 c-59 -147 -62 -199 -20 -324 55 -159 50 -157 100 -38 62
151 65 212 15 358 -21 61 -41 111 -45 111 -4 0 -27 -48 -50 -107z"/>
<path d="M4596 1679 c-46 -90 -55 -133 -36 -170 15 -27 25 -24 50 16 26 43 42
44 87 5 40 -35 49 -37 63 -11 20 37 10 69 -50 160 -33 50 -61 91 -64 91 -2 0
-24 -41 -50 -91z"/>
<path d="M8540 1655 c0 -2 27 -49 60 -104 92 -152 127 -175 283 -188 91 -7 90
-13 19 110 -83 140 -85 142 -215 166 -115 21 -147 25 -147 16z"/>
<path d="M8381 1616 c-16 -19 -2 -71 55 -199 24 -55 44 -104 44 -108 0 -5 -32
-67 -71 -139 -39 -71 -69 -137 -67 -147 2 -12 14 -19 35 -21 28 -3 36 3 63 40
17 23 58 91 91 152 l60 109 -21 51 c-39 91 -111 224 -135 250 -27 30 -38 32
-54 12z"/>
<path d="M9416 1599 c-22 -5 -54 -21 -72 -34 -40 -30 -154 -180 -154 -202 0
-14 14 -15 103 -11 64 4 115 12 133 21 57 30 174 177 174 219 0 16 -9 18 -72
17 -40 -1 -91 -5 -112 -10z"/>
<path d="M9716 1549 c-52 -62 -156 -255 -156 -290 0 -31 147 -329 162 -329 7
0 21 7 32 15 27 20 18 61 -45 194 l-53 113 67 134 c37 74 67 143 67 154 0 16
-26 40 -43 40 -3 0 -17 -14 -31 -31z"/>
<path d="M5412 1550 c-14 -6 -31 -29 -43 -57 -82 -189 -105 -227 -127 -200 -8
10 -6 29 8 76 29 92 28 101 -18 101 -50 0 -67 -19 -98 -110 -34 -95 -32 -140
5 -223 39 -86 69 -117 116 -117 44 0 44 10 8 103 -20 51 -24 70 -15 79 18 18
47 -14 108 -118 29 -50 60 -96 67 -103 8 -6 35 -14 60 -17 62 -9 67 7 29 82
-47 95 -57 133 -39 151 14 14 20 11 65 -31 70 -65 143 -83 216 -52 25 11 40
28 60 69 35 75 34 130 -2 188 -45 68 -67 84 -121 83 -82 -1 -118 -20 -159 -82
-25 -37 -44 -57 -57 -57 -31 0 -30 42 4 135 17 46 31 90 31 97 0 15 -62 17
-98 3z"/>
<path d="M8237 1522 c-17 -18 -16 -24 15 -115 l32 -96 -44 -92 -45 -91 24 -19
c38 -31 54 -24 93 44 93 161 93 160 25 297 -45 91 -68 108 -100 72z"/>
<path d="M4910 1520 c-69 -17 -79 -66 -20 -99 42 -23 44 -29 40 -100 -2 -43
-2 -44 26 -37 16 4 36 15 45 24 17 18 89 180 89 201 0 6 -18 11 -44 11 -24 0
-56 2 -72 4 -16 3 -45 1 -64 -4z"/>
<path d="M4265 1471 c-36 -8 -35 -21 2 -96 49 -98 98 -144 138 -129 13 5 13
10 0 41 -25 60 -20 81 24 99 64 25 65 66 3 84 -40 11 -120 11 -167 1z"/>
<path d="M9852 1468 c-6 -7 -29 -50 -51 -95 -54 -109 -54 -142 2 -253 45 -91
68 -107 100 -72 16 18 15 24 -15 109 l-33 91 23 54 c56 128 58 135 37 158 -21
23 -48 26 -63 8z"/>
<path d="M4630 1421 c-25 -51 -59 -77 -110 -85 -33 -5 -40 -10 -36 -24 17 -52
25 -130 19 -182 l-6 -60 45 0 c51 0 89 -24 113 -71 19 -37 42 -37 56 -1 19 49
48 70 105 78 60 7 62 12 40 71 -24 65 -26 89 -11 139 8 27 15 54 15 60 0 6
-24 14 -54 17 -62 6 -101 28 -122 68 -19 39 -30 36 -54 -10z"/>
<path d="M8093 1448 c-26 -13 -27 -21 -11 -83 10 -38 10 -52 -5 -91 -16 -45
-16 -46 8 -70 13 -13 29 -24 35 -24 16 0 69 89 76 127 5 25 -1 47 -22 91 -30
60 -44 68 -81 50z"/>
<path d="M3821 1442 c-11 -8 -6 -27 28 -99 22 -50 41 -100 41 -111 0 -33 -35
-28 -67 10 -72 83 -69 81 -140 75 -78 -6 -108 -25 -142 -90 -34 -67 -37 -123
-9 -171 34 -58 64 -75 140 -82 95 -9 113 -2 142 54 28 56 50 77 71 68 22 -8
19 -33 -19 -140 -18 -53 -30 -98 -27 -100 14 -9 103 12 121 29 11 10 34 56 51
102 34 90 62 133 85 133 18 0 18 -20 -2 -91 -9 -32 -14 -65 -11 -74 9 -21 40
-19 72 7 34 26 95 154 95 198 0 42 -71 193 -101 213 -13 10 -38 17 -56 17 -40
0 -43 -17 -13 -81 27 -60 26 -81 -2 -77 -17 2 -37 26 -71 83 -26 44 -58 90
-71 103 -25 25 -92 39 -115 24z"/>
<path d="M7820 1405 c-18 -19 -24 -37 -24 -74 -1 -64 22 -91 76 -91 87 0 119
91 54 156 -41 41 -74 43 -106 9z"/>
<path d="M9998 1361 c-13 -11 -35 -40 -48 -64 l-23 -44 22 -54 c32 -78 45 -93
75 -85 40 10 48 37 29 90 -16 43 -16 47 0 81 20 42 22 66 5 83 -17 17 -31 15
-60 -7z"/>
<path d="M10223 1318 c-18 -18 -35 -45 -38 -61 -21 -82 81 -142 140 -82 47 46
29 127 -35 160 -37 19 -31 20 -67 -17z"/>
<path d="M8939 1235 c-3 -2 -50 -9 -105 -15 -54 -6 -114 -18 -132 -27 -46 -23
-162 -184 -162 -224 0 -9 23 -10 88 -6 122 9 160 22 209 72 54 57 129 183 116
196 -5 5 -12 7 -14 4z"/>
<path d="M9180 1201 c0 -29 93 -182 131 -217 13 -12 40 -26 59 -33 51 -15 221
-43 227 -37 9 9 -88 163 -129 206 -58 60 -108 82 -205 88 -60 3 -83 2 -83 -7z"/>
<path d="M4945 1159 c-4 -6 1 -31 10 -55 20 -53 11 -71 -38 -76 -27 -2 -32 -7
-32 -28 0 -36 53 -60 132 -60 76 0 93 6 93 34 0 36 -49 122 -91 160 -40 37
-63 44 -74 25z"/>
<path d="M9027 1073 c-48 -103 -67 -159 -67 -198 0 -32 65 -253 79 -268 4 -4
13 -1 20 7 21 25 101 229 101 258 0 26 -61 212 -84 256 -12 22 -14 19 -49 -55z"/>
<path d="M4347 1108 c-14 -18 -38 -70 -54 -115 -36 -106 -32 -111 75 -96 107
16 132 27 132 57 0 27 -9 36 -55 51 -29 10 -30 13 -30 70 0 54 -2 60 -22 63
-14 2 -29 -7 -46 -30z"/>
<path d="M4743 897 c-45 -52 -51 -53 -88 -17 -67 65 -88 3 -34 -105 17 -35 43
-75 59 -90 l27 -26 21 26 c49 62 88 231 56 242 -6 2 -25 -11 -41 -30z"/>
<path d="M5002 840 c-67 -14 -100 -40 -148 -116 -53 -85 -63 -124 -40 -159 23
-35 39 -31 84 21 27 32 45 45 56 41 24 -9 20 -25 -30 -128 -31 -63 -47 -107
-47 -134 0 -45 27 -105 47 -105 7 0 35 38 61 85 51 90 77 121 94 110 17 -10
13 -55 -10 -122 l-20 -61 22 -51 c12 -28 39 -67 60 -86 36 -32 44 -35 102 -35
77 0 101 15 133 84 32 69 31 127 -2 185 -47 81 -60 91 -125 91 -54 0 -89 15
-89 39 0 21 43 40 114 49 43 6 83 15 88 20 15 15 -31 94 -62 109 -19 8 -50 9
-122 1 -104 -11 -128 -8 -128 16 0 20 35 39 85 45 49 7 56 32 23 74 -26 32
-76 41 -146 27z"/>
<path d="M8502 843 c-27 -5 -45 -37 -37 -63 8 -26 55 -37 187 -46 66 -4 112
-12 118 -19 6 -7 28 -54 49 -104 50 -115 76 -153 105 -149 18 3 21 9 21 48 -1
35 -16 77 -65 178 -35 72 -67 132 -71 132 -4 0 -41 4 -81 9 -98 13 -198 19
-226 14z"/>
<path d="M9315 808 c-29 -17 -37 -29 -122 -177 -78 -138 -81 -149 -40 -175 27
-17 47 2 109 105 92 153 72 139 201 140 145 1 161 6 165 47 2 20 -2 34 -10 37
-7 2 -65 9 -128 15 -63 5 -124 12 -135 15 -11 3 -29 0 -40 -7z"/>
<path d="M4323 800 c-23 -3 -48 -12 -57 -19 -14 -12 -42 -79 -34 -85 1 -2 34
-7 73 -12 53 -7 71 -13 73 -26 5 -27 -33 -39 -136 -45 -54 -3 -107 -10 -119
-14 -28 -10 -55 -62 -51 -97 3 -31 27 -39 120 -41 69 -1 88 -8 88 -30 0 -20
-39 -41 -75 -41 -54 0 -75 -18 -111 -94 -42 -93 -43 -125 -3 -188 47 -73 71
-88 141 -88 77 0 95 11 123 74 46 105 49 130 21 193 -28 59 -32 88 -16 98 18
11 55 -21 106 -89 26 -36 51 -66 55 -66 22 0 49 56 49 100 0 42 -8 60 -60 139
-33 50 -60 98 -60 106 0 27 36 15 75 -25 21 -22 45 -40 52 -40 19 0 47 64 40
91 -8 31 -105 158 -137 180 -29 20 -98 29 -157 19z"/>
<path d="M8500 651 c-32 -5 -35 -9 -35 -41 0 -38 -3 -36 117 -55 53 -8 97 -50
130 -122 31 -68 48 -77 88 -45 l22 18 -32 79 c-17 44 -41 100 -53 125 l-22 45
-90 1 c-50 1 -106 -1 -125 -5z"/>
<path d="M9418 623 c-36 -6 -66 -43 -118 -146 -48 -92 -48 -117 -2 -117 35 0
73 33 102 89 11 23 26 44 33 47 7 2 53 7 102 12 l90 7 0 50 c0 44 -3 50 -25
56 -27 8 -138 9 -182 2z"/>
<path d="M8472 468 c-16 -16 -15 -73 1 -86 6 -5 26 -13 44 -16 17 -4 48 -23
69 -42 49 -47 79 -44 78 8 -3 86 -143 185 -192 136z"/>
<path d="M9520 428 c-40 -11 -75 -41 -96 -80 -20 -39 -17 -61 10 -87 l24 -23
19 23 c37 46 65 68 96 75 42 8 57 22 57 49 0 40 -49 60 -110 43z"/>
<path d="M8403 230 c-58 -24 -66 -101 -17 -160 31 -36 63 -39 92 -8 45 49 53
105 20 142 -26 29 -63 39 -95 26z"/>
<path d="M9581 174 c-32 -41 -29 -117 5 -149 33 -31 52 -31 95 -2 30 20 34 29
37 70 3 41 -1 51 -27 77 -38 39 -81 40 -110 4z"/>
</g>
</svg>
